<svg id="debit-card" xmlns="http://www.w3.org/2000/svg" viewBox="0 0 154 146">
  <defs>
    <style>
      .cls-1 {
        fill: #1b2443;
      }

      .cls-2 {
        fill: #64207d;
      }
    </style>
  </defs>
  <path id="Path_179" data-name="Path 179" class="cls-1" d="M128.333,25.779V12.167C128.324,5.451,122.584.009,115.5,0H12.833C5.749.009.009,5.451,0,12.167V65.7A12.408,12.408,0,0,0,11.509,77.741l9.648,23.744c2.549,6.27,9.975,9.393,16.589,6.979L98,86.461a33.6,33.6,0,0,0,3.2,31.232l1.475,2.236v23.637A2.5,2.5,0,0,0,105.233,146h46.2A2.5,2.5,0,0,0,154,143.567V63.245a31.033,31.033,0,0,0-9.833-22.429Zm0,14.553,7.79,19.171a7.188,7.188,0,0,1-4.42,9.434l-4.453,1.63a11.633,11.633,0,0,0,1.083-4.867ZM5.133,65.7V12.167a7.509,7.509,0,0,1,7.7-7.3H115.5a7.509,7.509,0,0,1,7.7,7.3V27.633h-.022l.022.055V65.7a7.038,7.038,0,0,1-.174,1.261L99.515,44.669a14.238,14.238,0,0,0-19.042-.089,12.5,12.5,0,0,0-.721,18.041L89.774,73H12.833A7.509,7.509,0,0,1,5.133,65.7ZM38.015,77.867,19.763,84.528l-2.7-6.662ZM35.9,103.922a7.837,7.837,0,0,1-9.954-4.187L21.617,89.06,52.255,77.867v-.015H94.479L97.815,81.3Zm112.967,37.211H107.8V121.667h41.067Zm0-24.333H106.658l-1.113-1.686a29,29,0,0,1-.65-31.164,2.335,2.335,0,0,0-.336-2.852L83.525,59.344a7.817,7.817,0,0,1,.4-11.335,8.9,8.9,0,0,1,11.962.111l40.9,38.767,3.629-3.441-9.5-9,2.634-.973a11.981,11.981,0,0,0,7.359-15.72l-8.688-21.387,8.315,7.9a26.261,26.261,0,0,1,8.329,18.983Zm0,0"/>
  <path id="Path_180" data-name="Path 180" class="cls-2" d="M86.92,95.5a8.58,8.58,0,0,0,8.58-8.58V71.08a8.58,8.58,0,0,0-8.58-8.58H71.08a8.58,8.58,0,0,0-8.58,8.58V86.92a8.58,8.58,0,0,0,8.58,8.58ZM69.1,86.92V82.3h6.6V75.7H69.1V71.08a1.981,1.981,0,0,1,1.98-1.98H86.92a1.98,1.98,0,0,1,1.98,1.98V75.7H82.3v6.6h6.6v4.62a1.98,1.98,0,0,1-1.98,1.98H71.08A1.98,1.98,0,0,1,69.1,86.92Zm0,0" transform="translate(-49.3 -49.3)"/>
  <path id="Path_181" data-name="Path 181" class="cls-1" d="M78.125,265.625h13.2v6.6h-13.2Zm0,0" transform="translate(-61.625 -224.766)"/>
  <path id="Path_182" data-name="Path 182" class="cls-1" d="M78.125,359.375h13.2v6.6h-13.2Zm0,0" transform="translate(-61.625 -304.096)"/>
  <path id="Path_183" data-name="Path 183" class="cls-1" d="M359.375,359.375h13.2v6.6h-13.2Zm0,0" transform="translate(-301.546 -304.096)"/>
  <path id="Path_184" data-name="Path 184" class="cls-1" d="M171.875,265.625h13.2v6.6h-13.2Zm0,0" transform="translate(-144.218 -224.766)"/>
  <path id="Path_185" data-name="Path 185" class="cls-1" d="M265.625,265.625h13.2v6.6h-13.2Zm0,0" transform="translate(-222.882 -224.766)"/>
  <path id="Path_186" data-name="Path 186" class="cls-1" d="M359.375,265.625h13.2v6.6h-13.2Zm0,0" transform="translate(-301.546 -224.766)"/>
  <path id="Path_187" data-name="Path 187" class="cls-1" d="M656.25,78.125h6.6v9.9h-6.6Zm0,0" transform="translate(-549.512 -61.625)"/>
  <path id="Path_188" data-name="Path 188" class="cls-1" d="M593.75,78.125h6.6v9.9h-6.6Zm0,0" transform="translate(-497.178 -61.625)"/>
  <path id="Path_189" data-name="Path 189" class="cls-1" d="M531.25,78.125h6.6v9.9h-6.6Zm0,0" transform="translate(-444.843 -61.625)"/>
  <path id="Path_190" data-name="Path 190" class="cls-1" d="M468.75,78.125h6.6v9.9h-6.6Zm0,0" transform="translate(-392.509 -61.625)"/>
  <path id="Path_191" data-name="Path 191" class="cls-1" d="M687.5,812.5h6.6v6.6h-6.6Zm0,0" transform="translate(-575.679 -692.9)"/>
</svg>
