<svg xmlns="http://www.w3.org/2000/svg" xmlns:xlink="http://www.w3.org/1999/xlink" viewBox="0 0 114.141 97.678">
  <defs>
    <style>
      .cls-1 {
        fill: url(#linear-gradient);
      }
    </style>
    <linearGradient id="linear-gradient" x1="0.5" x2="0.5" y2="1" gradientUnits="objectBoundingBox">
      <stop offset="0" stop-color="#9f2fff"/>
      <stop offset="1" stop-color="#0bb1d3"/>
    </linearGradient>
  </defs>
  <g id="document" transform="translate(0 -20.786)">
    <path id="path22217" class="cls-1" d="M64.052,20.786a12.286,12.286,0,0,0-5.373,1.182L2.848,49.479c-1.6.788-2.843,2.082-2.843,3.755S1.248,56.2,2.848,56.99l31.4,15.475a1.629,1.629,0,0,0,.751.168l31.4-.573a1.628,1.628,0,0,0,.691-.168l44.2-21.779c1.6-.788,2.843-2.082,2.843-3.755S112.9,43.39,111.3,42.6L69.425,21.968A12.285,12.285,0,0,0,64.052,20.786Zm0,3.386a9.5,9.5,0,0,1,3.931.722l41.872,20.633c.977.482,1.023.846,1.023.83s-.046.348-1.023.83L66.377,68.611,50.815,60.943a1.627,1.627,0,0,0-1.442,0L33.81,68.611,4.291,54.065c-.977-.482-1.023-.846-1.023-.83s.046-.348,1.023-.83L60.12,24.894A9.5,9.5,0,0,1,64.052,24.172Zm4.619,7.609a.816.816,0,0,0-.327,1.552L91.606,44.8a.815.815,0,1,0,.759-1.443l-.038-.019L69.064,31.87A.819.819,0,0,0,68.671,31.781ZM57.04,37.513a.816.816,0,0,0-.327,1.551L79.974,50.527a.815.815,0,1,0,.759-1.443l-.038-.019L57.433,37.6A.815.815,0,0,0,57.04,37.513ZM45.408,43.244a.816.816,0,0,0-.327,1.551L68.343,56.259a.816.816,0,1,0,.721-1.464L45.8,43.333A.815.815,0,0,0,45.408,43.244Zm-20.1.572a.815.815,0,0,0-.369.09L7.492,52.5a.815.815,0,0,0,0,1.463l8.142,4.012a.815.815,0,1,0,.759-1.443l-.038-.019L9.7,53.235,25.66,45.369a.816.816,0,0,0-.352-1.553ZM50.093,64.223l9.534,4.7-19.8.361Zm61.767.2a1.982,1.982,0,0,0-.9.211L49.416,94.529,2.908,71.18A1.98,1.98,0,0,0,1.089,74.7l.042.021L48.514,98.506a1.98,1.98,0,0,0,1.753.011L112.693,68.2a1.98,1.98,0,0,0-.833-3.773Zm-42.9,15.837a.992.992,0,0,0-.447.11L49.158,90.048l-17.373-8.88a.99.99,0,0,0-.9,1.763L48.7,92.039a.99.99,0,0,0,.893,0l19.8-9.9a.99.99,0,0,0-.438-1.882Zm42.9,3.912a1.983,1.983,0,0,0-.9.211L49.416,114.277,2.908,90.928a1.98,1.98,0,0,0-1.855,3.5l.078.039,47.382,23.788a1.98,1.98,0,0,0,1.753.011l62.426-30.319a1.98,1.98,0,0,0-.833-3.773Zm-42.9,15.836a.992.992,0,0,0-.447.11L49.158,109.8l-17.373-8.879a.99.99,0,1,0-.929,1.749l.027.014L48.7,111.787a.99.99,0,0,0,.893,0l19.8-9.9a.99.99,0,0,0-.438-1.882Z"/>
  </g>
</svg>
