<svg xmlns="http://www.w3.org/2000/svg" xmlns:xlink="http://www.w3.org/1999/xlink" viewBox="0 0 100 104.026">
  <defs>
    <style>
      .cls-1 {
        fill: url(#linear-gradient);
      }
    </style>
    <linearGradient id="linear-gradient" x1="0.5" x2="0.5" y2="1" gradientUnits="objectBoundingBox">
      <stop offset="0" stop-color="#9f2fff"/>
      <stop offset="1" stop-color="#0bb1d3"/>
    </linearGradient>
  </defs>
  <g id="money-stacks-of-coins" transform="translate(0 -19.552)">
    <g id="Layer_8_2_" transform="translate(0 19.552)">
      <path id="Path_73" data-name="Path 73" class="cls-1" d="M48.4,42.375v8.107c0,4.2-10.838,7.6-24.2,7.6S0,54.679,0,50.482V42.375c0,4.2,10.835,7.6,24.2,7.6S48.4,46.573,48.4,42.375Zm0-1.535c0,4.2-10.835,7.6-24.2,7.6S0,45.039,0,40.84s10.835-7.6,24.2-7.6S48.4,36.641,48.4,40.84Zm-12.519-.432-21.26-1.671-.723,1.5.788.126c1.08.175,2.452.559,1.815,1.867l-.2.407,3.93.309.2-.408a2.172,2.172,0,0,0,.255-1.462L35.016,42.2ZM24.2,60.154c-13.366,0-24.2-3.4-24.2-7.6V60.66c0,4.2,10.835,7.6,24.2,7.6s24.2-3.4,24.2-7.6V52.552C48.4,56.751,37.566,60.154,24.2,60.154Zm0,10.236c-13.366,0-24.2-3.4-24.2-7.6V70.9c0,4.2,10.835,7.6,24.2,7.6s24.2-3.4,24.2-7.6V62.788C48.4,66.986,37.566,70.39,24.2,70.39Zm0,10.059c-13.366,0-24.2-3.4-24.2-7.6v8.11c0,4.2,10.835,7.6,24.2,7.6s24.2-3.4,24.2-7.6v-8.11C48.4,77.051,37.566,80.449,24.2,80.449Zm0,9.939c-13.366,0-24.2-3.4-24.2-7.6v8.106c0,4.2,10.835,7.6,24.2,7.6s24.2-3.4,24.2-7.6V82.785C48.4,86.984,37.566,90.388,24.2,90.388Zm0,9.919c-13.366,0-24.2-3.4-24.2-7.6v8.11c0,4.2,10.835,7.6,24.2,7.6s24.2-3.4,24.2-7.6V92.7C48.4,96.9,37.566,100.307,24.2,100.307ZM51.747,42.918h.177v.206a66.644,66.644,0,0,0,13.4,1.274c13.362,0,24.2-3.4,24.2-7.6V28.689c0,4.2-10.836,7.6-24.2,7.6s-24.2-3.4-24.2-7.6v3.051c5.807,1.608,10.8,4.486,10.8,9.643A7.189,7.189,0,0,1,51.747,42.918ZM41.126,27.153c0-4.2,10.836-7.6,24.2-7.6s24.2,3.4,24.2,7.6-10.836,7.6-24.2,7.6S41.126,31.353,41.126,27.153Zm12.515.433,21.26,1.67.725-1.495-.789-.126c-1.083-.176-2.449-.559-1.819-1.867l.2-.41-3.93-.308-.2.409a2.161,2.161,0,0,0-.258,1.463L54.51,25.8ZM65.328,54.574c13.362,0,24.2-3.4,24.2-7.6V38.866c0,4.2-10.836,7.6-24.2,7.6a66.446,66.446,0,0,1-13.4-1.277v5.833a7.29,7.29,0,0,1-.3,2.068h.3V53.3A66.374,66.374,0,0,0,65.328,54.574Zm-13.4,8.756v.207a66.645,66.645,0,0,0,13.4,1.274c13.362,0,24.2-3.4,24.2-7.6V49.1c0,4.2-10.836,7.6-24.2,7.6a66.541,66.541,0,0,1-13.4-1.274V61.2A7.314,7.314,0,0,1,51.6,63.33h.325Zm37.6,3.17V59.164c0,2.537-3.968,4.775-10.046,6.157A72.826,72.826,0,0,1,89.529,66.5Zm-37.6,3.981c2.35-1.843,5.861-3.042,9.487-3.822a62.352,62.352,0,0,1-9.487-1.169ZM75.8,85c-13.367,0-24.2-3.4-24.2-7.606V85.5c.007,4.2,10.837,7.6,24.2,7.6S100,89.7,100,85.5v-8.11C100,81.593,89.166,85,75.8,85Zm0-16.738c13.368,0,24.2,3.4,24.2,7.6s-10.834,7.6-24.2,7.6-24.2-3.4-24.2-7.6S62.435,68.261,75.8,68.261Zm3.515,7.367L64.986,74.5l-.867,1.79,21.26,1.672.724-1.5-.788-.123c-1.079-.178-2.448-.559-1.815-1.87l.2-.406-3.93-.307-.194.406A2.136,2.136,0,0,0,79.313,75.628ZM75.8,95.173c-13.367,0-24.2-3.4-24.2-7.6v8.111c.007,4.2,10.837,7.6,24.2,7.6s24.2-3.4,24.2-7.6V87.575C100,91.768,89.166,95.173,75.8,95.173Zm0,10.236c-13.367,0-24.2-3.4-24.2-7.6v8.108c.007,4.2,10.837,7.6,24.2,7.6s24.2-3.4,24.2-7.6V97.807C100,102.009,89.166,105.408,75.8,105.408Zm0,10.065c-13.367,0-24.2-3.405-24.2-7.6v8.11c.007,4.2,10.837,7.6,24.2,7.6s24.2-3.4,24.2-7.6v-8.11C100,112.068,89.166,115.473,75.8,115.473Z" transform="translate(0 -19.552)"/>
    </g>
  </g>
</svg>
