<svg xmlns="http://www.w3.org/2000/svg" xmlns:xlink="http://www.w3.org/1999/xlink" viewBox="0 0 97.105 99.505">
  <defs>
    <style>
      .cls-1 {
        fill: url(#linear-gradient);
      }
    </style>
    <linearGradient id="linear-gradient" x1="0.5" x2="0.5" y2="1" gradientUnits="objectBoundingBox">
      <stop offset="0" stop-color="#9f2fff"/>
      <stop offset="1" stop-color="#0bb1d3"/>
    </linearGradient>
  </defs>
  <g id="flyer" transform="translate(-5.856)">
    <g id="Group_136" data-name="Group 136" transform="translate(5.856 53.214)">
      <g id="Group_135" data-name="Group 135">
        <path id="Path_107" data-name="Path 107" class="cls-1" d="M100.783,261.9a7.379,7.379,0,0,0-10.176-.277,7.4,7.4,0,0,0-9.833,0,7.4,7.4,0,0,0-9.835,0,7.419,7.419,0,0,0-10.174.277L50.005,272.657a8.18,8.18,0,0,0-6.93-3.865H23.406a1.635,1.635,0,0,0-1.159.48L5.856,285.664l2.318,2.318,15.911-15.911H43.075a4.917,4.917,0,1,1,0,9.835H31.6v3.278H43.075a8.211,8.211,0,0,0,8.03-6.556H77.5a1.635,1.635,0,0,0,1.159-.48l13.932-13.932a4.156,4.156,0,0,1,5.878,5.878L80.1,288.462H44.714a1.635,1.635,0,0,0-1.159.48L28.8,303.694l2.318,2.318L45.393,291.74H80.775a1.635,1.635,0,0,0,1.159-.48l18.85-18.85a7.432,7.432,0,0,0,0-10.513ZM51.949,275.349l11.134-11.134a4.259,4.259,0,0,1,5.5-.3L57.148,275.349Zm9.835,0,11.134-11.134a4.149,4.149,0,0,1,5.5-.3L66.983,275.349Zm15.034,0h-5.2l11.134-11.134a4.149,4.149,0,0,1,5.5-.3Z" transform="translate(-5.856 -259.72)"/>
      </g>
    </g>
    <g id="Group_138" data-name="Group 138" transform="translate(20.128)">
      <g id="Group_137" data-name="Group 137" transform="translate(0)">
        <path id="Path_108" data-name="Path 108" class="cls-1" d="M145.993,6.556h-18.03V1.639A1.639,1.639,0,0,0,126.324,0H96.82a1.639,1.639,0,0,0-1.639,1.639V6.556H77.151A1.639,1.639,0,0,0,75.512,8.2v37.7a1.639,1.639,0,0,0,1.639,1.639h29.5a1.639,1.639,0,0,0,1.639-1.639V40.978h6.556v4.917a1.639,1.639,0,0,0,1.639,1.639h29.5a1.639,1.639,0,0,0,1.639-1.639V8.2A1.639,1.639,0,0,0,145.993,6.556Zm-40.978,37.7H78.79V9.835H95.181v4.19a6.489,6.489,0,0,0-3.278-.911,6.556,6.556,0,1,0,0,13.113,6.489,6.489,0,0,0,3.278-.911V29.5H83.708v3.278H95.181V36.06H83.708v3.278H95.181a1.639,1.639,0,0,0,1.639,1.639h8.2ZM95.181,19.669A3.278,3.278,0,1,1,91.9,16.391,3.282,3.282,0,0,1,95.181,19.669ZM106.655,37.7h-8.2V3.278h26.226V37.7h-18.03Zm37.7,6.556H118.129V40.978h8.2a1.639,1.639,0,0,0,1.639-1.639h11.474V36.06H127.963V32.782h11.474V29.5H127.963v-4.19a6.489,6.489,0,0,0,3.278.911,6.556,6.556,0,1,0,0-13.113,6.489,6.489,0,0,0-3.278.911V9.835h16.391ZM127.963,19.669a3.278,3.278,0,1,1,3.278,3.278A3.281,3.281,0,0,1,127.963,19.669Z" transform="translate(-75.512 0)"/>
      </g>
    </g>
    <g id="Group_140" data-name="Group 140" transform="translate(49.632 6.556)">
      <g id="Group_139" data-name="Group 139">
        <path id="Path_109" data-name="Path 109" class="cls-1" d="M226.068,32a6.556,6.556,0,1,0,6.556,6.556A6.563,6.563,0,0,0,226.068,32Zm0,9.835a3.278,3.278,0,1,1,3.278-3.278A3.282,3.282,0,0,1,226.068,41.835Z" transform="translate(-219.512 -32)"/>
      </g>
    </g>
    <g id="Group_142" data-name="Group 142" transform="translate(47.992 22.947)">
      <g id="Group_141" data-name="Group 141">
        <rect id="Rectangle_129" data-name="Rectangle 129" class="cls-1" width="16.391" height="3.278"/>
      </g>
    </g>
    <g id="Group_144" data-name="Group 144" transform="translate(47.992 29.504)">
      <g id="Group_143" data-name="Group 143">
        <rect id="Rectangle_130" data-name="Rectangle 130" class="cls-1" width="16.391" height="3.278"/>
      </g>
    </g>
  </g>
</svg>
