<svg xmlns="http://www.w3.org/2000/svg" xmlns:xlink="http://www.w3.org/1999/xlink" viewBox="0 0 157 81.453">
  <defs>
    <style>
      .cls-1 {
        fill: url(#linear-gradient);
      }
    </style>
    <linearGradient id="linear-gradient" x1="0.5" x2="0.5" y2="1" gradientUnits="objectBoundingBox">
      <stop offset="0" stop-color="#9f2fff"/>
      <stop offset="1" stop-color="#0bb1d3"/>
    </linearGradient>
  </defs>
  <g id="Group_148" data-name="Group 148" transform="translate(-801 -157.82)">
    <g id="banknote" transform="translate(801 157.82)">
      <g id="Group_125" data-name="Group 125" transform="translate(0.004 0)">
        <g id="Group_124" data-name="Group 124">
          <path id="Path_61" data-name="Path 61" class="cls-1" d="M104.408,92.377a1.842,1.842,0,0,0-.643-.643h.11l-67.54-40.98a1.839,1.839,0,0,0-1.839,0L1.039,68.6a1.839,1.839,0,0,0-.166,3.2L68.5,113.769a1.84,1.84,0,0,0,1.876.037L103.765,94.9A1.839,1.839,0,0,0,104.408,92.377ZM69.59,110.127,5.582,70.342l29.742-15.91,63.9,38.828Z" transform="translate(-0.018 -50.507)"/>
        </g>
      </g>
      <g id="Group_127" data-name="Group 127" transform="translate(0 26.811)">
        <g id="Group_126" data-name="Group 126" transform="translate(0)">
          <path id="Path_62" data-name="Path 62" class="cls-1" d="M104.431,191.138a1.846,1.846,0,0,0-2.52-.681h.11L69.594,208.851,2.845,167.411a1.852,1.852,0,1,0-1.986,3.127l67.632,41.973a1.84,1.84,0,0,0,1.876.037l33.384-18.89A1.846,1.846,0,0,0,104.431,191.138Z" transform="translate(0 -167.122)"/>
        </g>
      </g>
      <g id="Group_129" data-name="Group 129" transform="translate(0 35.751)">
        <g id="Group_128" data-name="Group 128" transform="translate(0 0)">
          <path id="Path_63" data-name="Path 63" class="cls-1" d="M104.039,229.953a1.839,1.839,0,0,0-2.017-.6L69.5,247.749,2.845,206.291a1.852,1.852,0,1,0-1.986,3.127l67.632,42.01a1.84,1.84,0,0,0,1.876.037l33.384-18.927A1.839,1.839,0,0,0,104.039,229.953Z" transform="translate(0 -206.002)"/>
        </g>
      </g>
    </g>
    <path id="Path_106" data-name="Path 106" class="cls-1" d="M-40.3-10.578V-29.526H-26.25v3.205H-36.474v4.2h9.513v3.192h-9.513v5.157h10.585v3.192Zm17.668,0V-29.526h8.052a13.782,13.782,0,0,1,4.414.511,4.354,4.354,0,0,1,2.2,1.816,5.458,5.458,0,0,1,.827,2.986,5.058,5.058,0,0,1-1.254,3.522,6.021,6.021,0,0,1-3.748,1.751,8.925,8.925,0,0,1,2.049,1.59A21.594,21.594,0,0,1-7.91-14.275l2.314,3.7h-4.575L-12.938-14.7a26.745,26.745,0,0,0-2.016-2.785,2.936,2.936,0,0,0-1.15-.788,6.306,6.306,0,0,0-1.926-.213h-.775v7.91Zm3.826-10.934h2.831a14.616,14.616,0,0,0,3.438-.233,2.06,2.06,0,0,0,1.073-.8,2.467,2.467,0,0,0,.388-1.422,2.272,2.272,0,0,0-.511-1.544,2.343,2.343,0,0,0-1.441-.743q-.465-.065-2.792-.065h-2.986Zm27.4,3.968L12.3-16.369a8.32,8.32,0,0,1-2.837,4.608,8.092,8.092,0,0,1-5.034,1.506,8.15,8.15,0,0,1-6.2-2.578,9.866,9.866,0,0,1-2.43-7.05q0-4.73,2.443-7.348a8.376,8.376,0,0,1,6.424-2.617,7.881,7.881,0,0,1,5.648,2.055,7.474,7.474,0,0,1,1.939,3.49l-3.787.9a4.017,4.017,0,0,0-1.4-2.326,4.018,4.018,0,0,0-2.591-.853,4.311,4.311,0,0,0-3.419,1.512q-1.312,1.512-1.312,4.9,0,3.593,1.292,5.118a4.2,4.2,0,0,0,3.36,1.525,3.832,3.832,0,0,0,2.624-.969A5.631,5.631,0,0,0,8.595-17.545ZM-19.355,18.82v2.236H-31.879a4.115,4.115,0,0,1,.271-1.616,8.547,8.547,0,0,1,1.532-2.52,24,24,0,0,1,3.044-2.869,25.8,25.8,0,0,0,4.175-4.013,4.805,4.805,0,0,0,1.086-2.8,3.109,3.109,0,0,0-.989-2.333,3.566,3.566,0,0,0-2.578-.95,3.633,3.633,0,0,0-2.688,1.008,3.814,3.814,0,0,0-1.021,2.792l-2.391-.246a5.886,5.886,0,0,1,1.848-4.078,6.3,6.3,0,0,1,4.3-1.4A6.006,6.006,0,0,1-20.97,3.543a4.965,4.965,0,0,1,1.59,3.748,5.685,5.685,0,0,1-.465,2.236,8.677,8.677,0,0,1-1.544,2.314,37.626,37.626,0,0,1-3.587,3.335q-2.094,1.758-2.688,2.385a7.65,7.65,0,0,0-.982,1.26Zm3.8,2.236v-2.65h2.65v2.65Zm6.049-9.345A17.338,17.338,0,0,1-8.815,6.3,6.728,6.728,0,0,1-6.76,3.143,5.254,5.254,0,0,1-3.328,2.031a5.6,5.6,0,0,1,2.675.614,5.114,5.114,0,0,1,1.9,1.771A9.5,9.5,0,0,1,2.423,7.233a18.72,18.72,0,0,1,.427,4.478,17.387,17.387,0,0,1-.685,5.383A6.73,6.73,0,0,1,.116,20.261a5.254,5.254,0,0,1-3.444,1.118,5.2,5.2,0,0,1-4.3-1.965Q-9.506,17.049-9.506,11.712Zm2.391,0q0,4.666,1.092,6.21a3.218,3.218,0,0,0,2.695,1.544A3.216,3.216,0,0,0-.633,17.915q1.092-1.551,1.092-6.2,0-4.679-1.092-6.217A3.242,3.242,0,0,0-3.354,3.957,2.981,2.981,0,0,0-5.913,5.314Q-7.115,7.046-7.115,11.712Z" transform="translate(945.696 198.248)"/>
  </g>
</svg>
