<svg id="root-directory_2_" data-name="root-directory (2)" xmlns="http://www.w3.org/2000/svg" viewBox="0 0 153 153">
  <defs>
    <style>
      .cls-1 {
        fill: #64207d;
      }

      .cls-2 {
        fill: #1b2443;
      }

      .cls-3 {
        fill: #ccc;
      }

      .cls-4 {
        fill: #dcdcdc;
      }
    </style>
  </defs>
  <path id="Path_168" data-name="Path 168" class="cls-1" d="M177.141,203.01V229.9a4.482,4.482,0,0,1-8.965,0V207.492H68.965v13.447a4.482,4.482,0,0,1-8.965,0V203.01a4.439,4.439,0,0,1,4.482-4.482h49.605V184.482a4.482,4.482,0,0,1,8.965,0v14.045h49.605A4.439,4.439,0,0,1,177.141,203.01Z" transform="translate(-42.07 -126.211)"/>
  <path id="Path_169" data-name="Path 169" class="cls-2" d="M314.57,203.01V229.9a4.482,4.482,0,0,1-8.965,0V207.492H256V180a4.439,4.439,0,0,1,4.482,4.482v14.045h49.605A4.439,4.439,0,0,1,314.57,203.01Z" transform="translate(-179.5 -126.211)"/>
  <path id="Path_170" data-name="Path 170" class="cls-3" d="M332.16,337.859l10.858-8.965V315.447a4.48,4.48,0,0,0-4.482-4.482h-34.3l-7.651-7.652A4.48,4.48,0,0,0,293.412,302h-17.93A4.48,4.48,0,0,0,271,306.482v22.412l13.505,8.965Z" transform="translate(-190.018 -211.754)"/>
  <g id="Group_720" data-name="Group 720">
    <path id="Path_171" data-name="Path 171" class="cls-3" d="M72.018,319.416V297a4.48,4.48,0,0,0-4.482-4.482h-34.3l-7.651-7.652a4.479,4.479,0,0,0-3.169-1.313H4.482A4.48,4.48,0,0,0,0,288.039v31.377H72.018" transform="translate(0 -198.822)"/>
    <path id="Path_172" data-name="Path 172" class="cls-3" d="M207.719,13.447V26.895L201,35.859H143.62L136,26.895V4.482A4.439,4.439,0,0,1,140.482,0h17.93a4.2,4.2,0,0,1,3.137,1.345l7.71,7.62h33.976A4.439,4.439,0,0,1,207.719,13.447Z" transform="translate(-95.359)"/>
  </g>
  <path id="Path_173" data-name="Path 173" class="cls-4" d="M285.136,56.895H256V30h31.377a4.438,4.438,0,0,1,4.482,4.482V47.93Z" transform="translate(-179.5 -21.035)"/>
  <g id="Group_721" data-name="Group 721" transform="translate(0 26.895)">
    <path id="Path_174" data-name="Path 174" class="cls-2" d="M72.018,423.377a4.48,4.48,0,0,1-4.482,4.482H4.482A4.48,4.48,0,0,1,0,423.377V392H72.018Z" transform="translate(0 -301.754)"/>
    <path id="Path_175" data-name="Path 175" class="cls-1" d="M136,90v31.377a4.439,4.439,0,0,0,4.482,4.482h62.754a4.439,4.439,0,0,0,4.482-4.482V90Z" transform="translate(-95.359 -90)"/>
  </g>
  <g id="Group_722" data-name="Group 722" transform="translate(76.5 26.895)">
    <path id="Path_176" data-name="Path 176" class="cls-2" d="M343.018,423.377a4.48,4.48,0,0,1-4.482,4.482H275.482A4.48,4.48,0,0,1,271,423.377V392h72.018Z" transform="translate(-266.518 -301.754)"/>
    <path id="Path_177" data-name="Path 177" class="cls-2" d="M291.859,90v31.377a4.438,4.438,0,0,1-4.482,4.482H256V90Z" transform="translate(-256 -90)"/>
  </g>
</svg>
