<svg id="document_1_" data-name="document (1)" xmlns="http://www.w3.org/2000/svg" xmlns:xlink="http://www.w3.org/1999/xlink" viewBox="0 0 93.171 93.171">
  <defs>
    <style>
      .cls-1 {
        fill: url(#linear-gradient);
      }

      .cls-2 {
        fill: url(#linear-gradient-2);
      }

      .cls-3 {
        fill: url(#linear-gradient-3);
      }

      .cls-4 {
        fill: url(#linear-gradient-4);
      }

      .cls-5 {
        fill: url(#linear-gradient-5);
      }

      .cls-6 {
        fill: url(#linear-gradient-6);
      }

      .cls-7 {
        fill: url(#linear-gradient-7);
      }
    </style>
    <linearGradient id="linear-gradient" x1="0.5" y1="1.009" x2="0.5" y2="-0.061" gradientUnits="objectBoundingBox">
      <stop offset="0" stop-color="#9f2fff"/>
      <stop offset="1" stop-color="#0bb1d3"/>
    </linearGradient>
    <linearGradient id="linear-gradient-2" y1="27.266" y2="-4.823" xlink:href="#linear-gradient"/>
    <linearGradient id="linear-gradient-3" y1="24.266" y2="-7.823" xlink:href="#linear-gradient"/>
    <linearGradient id="linear-gradient-4" y1="21.266" y2="-10.823" xlink:href="#linear-gradient"/>
    <linearGradient id="linear-gradient-5" y1="18.266" y2="-13.823" xlink:href="#linear-gradient"/>
    <linearGradient id="linear-gradient-6" y1="15.266" y2="-16.823" xlink:href="#linear-gradient"/>
    <linearGradient id="linear-gradient-7" y1="9.422" y2="-1.274" xlink:href="#linear-gradient"/>
  </defs>
  <g id="Group_134" data-name="Group 134" transform="translate(0 0)">
    <path id="Path_99" data-name="Path 99" class="cls-1" d="M85.406,27.951H83.853V13.976c0-.034-.017-.062-.019-.1a1.553,1.553,0,0,0-.083-.41c-.017-.049-.03-.1-.052-.146a1.527,1.527,0,0,0-.3-.443L70.977.458a1.531,1.531,0,0,0-.446-.3c-.045-.022-.093-.034-.14-.052a1.508,1.508,0,0,0-.421-.083A.56.56,0,0,0,69.878,0H15.528A6.212,6.212,0,0,0,9.317,6.211v21.74H7.764A7.773,7.773,0,0,0,0,35.715V85.406a7.773,7.773,0,0,0,7.764,7.764H85.406a7.773,7.773,0,0,0,7.764-7.764V35.715A7.773,7.773,0,0,0,85.406,27.951ZM37.936,62.114h17.3L81.788,90.065H11.382Zm47.47-31.057A4.658,4.658,0,0,1,90,34.939L83.853,39.22V31.057ZM78.552,12.423H72.984a1.553,1.553,0,0,1-1.553-1.553V5.3ZM12.423,6.211a3.106,3.106,0,0,1,3.106-3.106h52.8V10.87a4.659,4.659,0,0,0,4.659,4.659h7.764v25.85L55.415,59.008H37.756L12.423,41.379ZM7.764,31.057H9.317V39.22L3.169,34.947A4.658,4.658,0,0,1,7.764,31.057ZM3.106,85.406V38.686L34.9,60.8,7.143,90.023a4.659,4.659,0,0,1-4.038-4.617Zm82.922,4.617L58.273,60.8,90.065,38.686v46.72a4.659,4.659,0,0,1-4.038,4.617Zm0,0" transform="translate(0 0)"/>
    <path id="Path_100" data-name="Path 100" class="cls-2" d="M161.553,51.106H189.5a1.553,1.553,0,0,0,0-3.106H161.553a1.553,1.553,0,0,0,0,3.106Zm0,0" transform="translate(-128.943 -38.683)"/>
    <path id="Path_101" data-name="Path 101" class="cls-3" d="M96,97.553a1.553,1.553,0,0,0,1.553,1.553h52.8a1.553,1.553,0,0,0,0-3.106h-52.8A1.553,1.553,0,0,0,96,97.553Zm0,0" transform="translate(-77.366 -77.366)"/>
    <path id="Path_102" data-name="Path 102" class="cls-4" d="M150.349,144h-52.8a1.553,1.553,0,0,0,0,3.106h52.8a1.553,1.553,0,0,0,0-3.106Zm0,0" transform="translate(-77.366 -116.049)"/>
    <path id="Path_103" data-name="Path 103" class="cls-5" d="M150.349,192h-52.8a1.553,1.553,0,1,0,0,3.106h52.8a1.553,1.553,0,0,0,0-3.106Zm0,0" transform="translate(-77.366 -154.732)"/>
    <path id="Path_104" data-name="Path 104" class="cls-6" d="M179.715,240H145.553a1.553,1.553,0,1,0,0,3.106h34.163a1.553,1.553,0,1,0,0-3.106Zm0,0" transform="translate(-116.049 -193.415)"/>
  </g>
  <path id="Path_105" data-name="Path 105" class="cls-7" d="M81.553,41.317a1.553,1.553,0,0,0,1.553-1.553V36.659a1.553,1.553,0,0,1,1.553-1.553h3.106a1.553,1.553,0,0,0,0-3.106H84.659A4.659,4.659,0,0,0,80,36.659v3.106A1.553,1.553,0,0,0,81.553,41.317Zm0,0" transform="translate(-64.472 -25.789)"/>
</svg>
