<svg xmlns="http://www.w3.org/2000/svg" viewBox="0 0 153 153">
  <defs>
    <style>
      .cls-1 {
        fill: #64207d;
      }

      .cls-2 {
        fill: #1b2443;
      }
    </style>
  </defs>
  <g id="Group_724" data-name="Group 724" transform="translate(-471 -210)">
    <g id="website_1_" data-name="website (1)" transform="translate(471 210)">
      <path id="Path_122" data-name="Path 122" class="cls-1" d="M104,88h45.9v45.9H104Zm0,0" transform="translate(-70.85 -59.95)"/>
      <path id="Path_124" data-name="Path 124" class="cls-2" d="M150.8,8H13.1A5.1,5.1,0,0,0,8,13.1V23.3H155.9V13.1A5.1,5.1,0,0,0,150.8,8Zm0,0" transform="translate(-5.45 -5.45)"/>
      <g id="Group_717" data-name="Group 717">
        <path id="Path_125" data-name="Path 125" class="cls-2" d="M145.35,0H7.65A7.65,7.65,0,0,0,0,7.65v137.7A7.65,7.65,0,0,0,7.65,153h137.7a7.65,7.65,0,0,0,7.65-7.65V7.65A7.65,7.65,0,0,0,145.35,0ZM7.65,5.1h137.7a2.55,2.55,0,0,1,2.55,2.55V15.3H5.1V7.65A2.55,2.55,0,0,1,7.65,5.1ZM5.1,145.35V20.4H20.4V147.9H7.65A2.55,2.55,0,0,1,5.1,145.35Zm140.25,2.55H25.5V20.4H147.9V145.35A2.55,2.55,0,0,1,145.35,147.9Zm0,0"/>
        <path id="Path_126" data-name="Path 126" class="cls-2" d="M32,24h5.1v5.1H32Zm0,0" transform="translate(-21.8 -16.35)"/>
        <path id="Path_127" data-name="Path 127" class="cls-2" d="M72,24h5.1v5.1H72Zm0,0" transform="translate(-49.05 -16.35)"/>
        <path id="Path_128" data-name="Path 128" class="cls-2" d="M112,24h5.1v5.1H112Zm0,0" transform="translate(-76.3 -16.35)"/>
        <path id="Path_129" data-name="Path 129" class="cls-2" d="M24,80H34.2v5.1H24Zm0,0" transform="translate(-16.35 -54.5)"/>
        <path id="Path_130" data-name="Path 130" class="cls-2" d="M24,112H34.2v5.1H24Zm0,0" transform="translate(-16.35 -76.3)"/>
        <path id="Path_131" data-name="Path 131" class="cls-2" d="M24,144H34.2v5.1H24Zm0,0" transform="translate(-16.35 -98.1)"/>
        <path id="Path_132" data-name="Path 132" class="cls-2" d="M24,176H34.2v5.1H24Zm0,0" transform="translate(-16.35 -119.9)"/>
        <path id="Path_133" data-name="Path 133" class="cls-2" d="M24,208H34.2v5.1H24Zm0,0" transform="translate(-16.35 -141.7)"/>
        <path id="Path_134" data-name="Path 134" class="cls-2" d="M24,240H34.2v5.1H24Zm0,0" transform="translate(-16.35 -163.5)"/>
        <path id="Path_135" data-name="Path 135" class="cls-2" d="M24,272H34.2v5.1H24Zm0,0" transform="translate(-16.35 -185.3)"/>
        <path id="Path_136" data-name="Path 136" class="cls-2" d="M24,304H34.2v5.1H24Zm0,0" transform="translate(-16.35 -207.1)"/>
        <path id="Path_137" data-name="Path 137" class="cls-2" d="M24,336H34.2v5.1H24Zm0,0" transform="translate(-16.35 -228.9)"/>
        <path id="Path_138" data-name="Path 138" class="cls-2" d="M24,368H34.2v5.1H24Zm0,0" transform="translate(-16.35 -250.7)"/>
        <path id="Path_139" data-name="Path 139" class="cls-2" d="M24,400H34.2v5.1H24Zm0,0" transform="translate(-16.35 -272.5)"/>
        <path id="Path_140" data-name="Path 140" class="cls-2" d="M24,432H34.2v5.1H24Zm0,0" transform="translate(-16.35 -294.3)"/>
        <path id="Path_141" data-name="Path 141" class="cls-2" d="M144.45,80H98.55A2.55,2.55,0,0,0,96,82.55v45.9A2.55,2.55,0,0,0,98.55,131h45.9a2.55,2.55,0,0,0,2.55-2.55V82.55A2.55,2.55,0,0,0,144.45,80Zm-2.55,45.9H101.1V85.1h40.8Zm0,0" transform="translate(-65.4 -54.5)"/>
        <path id="Path_142" data-name="Path 142" class="cls-2" d="M336.45,80h-45.9A2.55,2.55,0,0,0,288,82.55v45.9a2.55,2.55,0,0,0,2.55,2.55h45.9a2.55,2.55,0,0,0,2.55-2.55V82.55A2.55,2.55,0,0,0,336.45,80Zm-2.55,45.9H293.1V85.1h40.8Zm0,0" transform="translate(-196.2 -54.5)"/>
        <path id="Path_143" data-name="Path 143" class="cls-2" d="M384,312h15.3v5.1H384Zm0,0" transform="translate(-261.6 -212.55)"/>
        <path id="Path_144" data-name="Path 144" class="cls-2" d="M304,312h22.95v5.1H304Zm0,0" transform="translate(-207.1 -212.55)"/>
        <path id="Path_145" data-name="Path 145" class="cls-2" d="M280,312h5.1v5.1H280Zm0,0" transform="translate(-190.75 -212.55)"/>
        <path id="Path_146" data-name="Path 146" class="cls-2" d="M176,312h30.6v5.1H176Zm0,0" transform="translate(-119.9 -212.55)"/>
        <path id="Path_147" data-name="Path 147" class="cls-2" d="M112,312h17.85v5.1H112Zm0,0" transform="translate(-76.3 -212.55)"/>
        <path id="Path_148" data-name="Path 148" class="cls-2" d="M384,392h15.3v5.1H384Zm0,0" transform="translate(-261.6 -267.05)"/>
        <path id="Path_149" data-name="Path 149" class="cls-2" d="M304,392h22.95v5.1H304Zm0,0" transform="translate(-207.1 -267.05)"/>
        <path id="Path_150" data-name="Path 150" class="cls-2" d="M280,392h5.1v5.1H280Zm0,0" transform="translate(-190.75 -267.05)"/>
        <path id="Path_151" data-name="Path 151" class="cls-2" d="M176,392h30.6v5.1H176Zm0,0" transform="translate(-119.9 -267.05)"/>
        <path id="Path_152" data-name="Path 152" class="cls-2" d="M112,392h17.85v5.1H112Zm0,0" transform="translate(-76.3 -267.05)"/>
        <path id="Path_153" data-name="Path 153" class="cls-2" d="M112,272h15.3v5.1H112Zm0,0" transform="translate(-76.3 -185.3)"/>
        <path id="Path_154" data-name="Path 154" class="cls-2" d="M168,272h22.95v5.1H168Zm0,0" transform="translate(-114.45 -185.3)"/>
        <path id="Path_155" data-name="Path 155" class="cls-2" d="M248,272h5.1v5.1H248Zm0,0" transform="translate(-168.95 -185.3)"/>
        <path id="Path_156" data-name="Path 156" class="cls-2" d="M272,272h30.6v5.1H272Zm0,0" transform="translate(-185.3 -185.3)"/>
        <path id="Path_157" data-name="Path 157" class="cls-2" d="M376,272h17.85v5.1H376Zm0,0" transform="translate(-256.15 -185.3)"/>
        <path id="Path_158" data-name="Path 158" class="cls-2" d="M112,352h15.3v5.1H112Zm0,0" transform="translate(-76.3 -239.8)"/>
        <path id="Path_159" data-name="Path 159" class="cls-2" d="M168,352h22.95v5.1H168Zm0,0" transform="translate(-114.45 -239.8)"/>
        <path id="Path_160" data-name="Path 160" class="cls-2" d="M248,352h5.1v5.1H248Zm0,0" transform="translate(-168.95 -239.8)"/>
        <path id="Path_161" data-name="Path 161" class="cls-2" d="M272,352h30.6v5.1H272Zm0,0" transform="translate(-185.3 -239.8)"/>
        <path id="Path_162" data-name="Path 162" class="cls-2" d="M376,352h17.85v5.1H376Zm0,0" transform="translate(-256.15 -239.8)"/>
        <path id="Path_163" data-name="Path 163" class="cls-2" d="M112,432h15.3v5.1H112Zm0,0" transform="translate(-76.3 -294.3)"/>
        <path id="Path_164" data-name="Path 164" class="cls-2" d="M168,432h22.95v5.1H168Zm0,0" transform="translate(-114.45 -294.3)"/>
        <path id="Path_165" data-name="Path 165" class="cls-2" d="M248,432h5.1v5.1H248Zm0,0" transform="translate(-168.95 -294.3)"/>
        <path id="Path_166" data-name="Path 166" class="cls-2" d="M272,432h30.6v5.1H272Zm0,0" transform="translate(-185.3 -294.3)"/>
        <path id="Path_167" data-name="Path 167" class="cls-2" d="M376,432h17.85v5.1H376Zm0,0" transform="translate(-256.15 -294.3)"/>
      </g>
    </g>
    <g id="employee" transform="translate(493.444 246.027)">
      <g id="Group_723" data-name="Group 723" transform="translate(83.447)">
        <path id="Path_178" data-name="Path 178" class="cls-2" d="M103.87,25.1a.454.454,0,0,0-.454.454v4.266a.251.251,0,0,1-.251.25h-2.439V21.13a.454.454,0,1,0-.907,0v8.935H94.908L96.333,28.5a.813.813,0,0,0,.2-.653l0-.014L95.17,19.819l.365-.55a1.029,1.029,0,0,0,.65.282.8.8,0,0,0,.711-.44h0l1.431-2.867,3.259,1.262a3.144,3.144,0,0,1,1.83,2.858v3.069a.454.454,0,0,0,.907,0V20.363a4.049,4.049,0,0,0-2.395-3.7l-.009,0-5.424-2.1V13.289a4.251,4.251,0,0,0,1.609-2.8,1.964,1.964,0,0,0,1.154-.471,1.926,1.926,0,0,0,.2-2.718V5.623a5.623,5.623,0,1,0-11.246,0V7.348a1.822,1.822,0,0,0-.468,1.214,1.923,1.923,0,0,0,.669,1.46,1.963,1.963,0,0,0,1.153.47,4.206,4.206,0,0,0,1.7,2.864v1.205l-5.418,2.1-.009,0a4.049,4.049,0,0,0-2.395,3.7v9.452A1.159,1.159,0,0,0,84.6,30.972h4.323a.454.454,0,0,0,0-.907h-.976V21.13a.454.454,0,0,0-.907,0v8.935H84.605a.251.251,0,0,1-.251-.251V20.363a3.144,3.144,0,0,1,1.829-2.857l3.257-1.262,1.431,2.868a.794.794,0,0,0,.711.44,1.028,1.028,0,0,0,.65-.282l.365.55-1.356,8.013,0,.014a.814.814,0,0,0,.2.653l1.424,1.567H91.045a.454.454,0,1,0,0,.907h12.121a1.159,1.159,0,0,0,1.158-1.158V25.549A.454.454,0,0,0,103.87,25.1Zm-6.393-9.181-1.334,2.673-1.6-1.139,1.648-2.034ZM94.8,18.743l-.346.521H93.318l-.346-.521.912-.647Zm-2.619-4.036v-.849a4.6,4.6,0,0,0,1.716.325,4.259,4.259,0,0,0,1.7-.354v.881l-1.7,2.1ZM99.02,8.562a1.016,1.016,0,0,1-.353.771,1.057,1.057,0,0,1-.524.241V7.55A1.026,1.026,0,0,1,99.02,8.562ZM89.53,9.575a1.025,1.025,0,0,1-.877-1.013,1.077,1.077,0,0,1,.877-.99Zm.024-2.927a2.243,2.243,0,0,0-.434.1V5.623a4.716,4.716,0,1,1,9.431,0V6.715a2.017,2.017,0,0,0-.409-.079c0-.438,0-.353-1.428-1.893a.807.807,0,0,0-1.031-.126A8.747,8.747,0,0,1,90.4,6.04.807.807,0,0,0,89.555,6.648Zm.883,3.284V6.952a9.7,9.7,0,0,0,5.671-1.529c.657.705,1.013,1.075,1.127,1.216V9.932a3.4,3.4,0,0,1-6.8,0Zm1.187,8.655L90.29,15.914l1.288-.5,1.648,2.034Zm.521,9.343,1.313-7.759h.851l1.313,7.759-1.739,1.913Z" transform="translate(-83.447)"/>
      </g>
    </g>
  </g>
</svg>
