<svg xmlns="http://www.w3.org/2000/svg" viewBox="0 0 142 79.1">
  <defs>
    <style>
      .cls-1 {
        fill: #1b2443;
      }

      .cls-2 {
        fill: #64207d;
      }
    </style>
  </defs>
  <g id="resting" transform="translate(0 -14.148)">
    <g id="Group_728" data-name="Group 728" transform="translate(0 14.148)">
      <path id="Path_192" data-name="Path 192" class="cls-1" d="M141.877,49.974a57.115,57.115,0,0,0-7.229-20.1,15.492,15.492,0,0,1-10.237,10.512,46.535,46.535,0,0,1,1.91,4.8c-2.434.056-4.886.047-7.311-.047-3.859-5.337-11.933-8.234-18.52-3.11a43.86,43.86,0,0,1-3.532-10.973c2.925.176,5.849.4,8.752.8a15.3,15.3,0,0,1,.778-13.927c-5.662-.671-11.386-.869-17.066-1.334-3.892-.32-6.876,3.426-6.987,6.989-.336,9.857,2.516,19.04,6.978,27.629-4.475,3.6-8.638,6.831-13.218,10.548a130.341,130.341,0,0,0-19.313-15.4c-3.51-2.37-7.611-.969-10.592,1.369q-13.7,10.75-27.414,21.516A7.882,7.882,0,0,0,16.188,72.8H8.456c-11.275,0-11.275,17.475,0,17.475h66.4A14.962,14.962,0,0,0,85.1,86.1c12.186-10.546,20-15.845,32.186-26.393.287-.245.538-.5.782-.745,5.7.26,11.435.118,17.081-.147C140.025,58.6,142.611,54.558,141.877,49.974ZM42.428,72.8q5.158-4.051,10.317-8.092a89.385,89.385,0,0,1,10,8.092Z" transform="translate(0 -11.181)"/>
      <path id="Path_193" data-name="Path 193" class="cls-2" d="M61.546,41.344a13.6,13.6,0,1,0-13.593-13.6A13.612,13.612,0,0,0,61.546,41.344Z" transform="translate(58.645 -14.148)"/>
    </g>
  </g>
</svg>
