<svg xmlns="http://www.w3.org/2000/svg" xmlns:xlink="http://www.w3.org/1999/xlink" viewBox="0 0 100 99.314">
  <defs>
    <style>
      .cls-1 {
        fill: url(#linear-gradient);
      }
    </style>
    <linearGradient id="linear-gradient" x1="0.5" y1="1" x2="0.5" gradientUnits="objectBoundingBox">
      <stop offset="0" stop-color="#9f2fff"/>
      <stop offset="1" stop-color="#0bb1d3"/>
    </linearGradient>
  </defs>
  <path id="tech-support" class="cls-1" d="M94.451,63.918l2.326-3.86-8.568-8.567-3.86,2.325a22.754,22.754,0,0,0-2.834-1.168l-1.086-4.382H68.312l-1.086,4.382a22.231,22.231,0,0,0-2.833,1.168l-3.861-2.325-8.568,8.567.853,1.414L42.334,59.725v-.414a19.312,19.312,0,0,0,8.611-7.841h2.6a4.811,4.811,0,0,0,4.806-4.806,4.811,4.811,0,0,0,4.806-4.806V35.451a4.8,4.8,0,0,0-3.2-4.511V25.6A25.387,25.387,0,0,0,16.614,7.648l-.743.74A10.047,10.047,0,0,0,8.7,18.028V30.941a4.8,4.8,0,0,0-3.2,4.511v6.407A4.811,4.811,0,0,0,10.3,46.664h5.438a19.275,19.275,0,0,0,10.58,12.647v.414L13.967,61.782a11.235,11.235,0,0,0-8.7,7.229L0,83.506H54.123c.058.122.107.249.167.367l-2.326,3.861L60.532,96.3l3.861-2.325a22.933,22.933,0,0,0,2.833,1.168l1.086,4.381H80.428l1.086-4.381a22.517,22.517,0,0,0,2.834-1.168l3.86,2.325,8.568-8.567-2.326-3.861a22.268,22.268,0,0,0,1.166-2.835L100,79.954V67.838l-4.383-1.086a22.159,22.159,0,0,0-1.166-2.834Zm-40.9-15.652H52.425c.186-.523.347-1.057.489-1.6h2.235a1.6,1.6,0,0,1-1.6,1.6Zm6.407-12.815v6.407a1.6,1.6,0,0,1-1.6,1.6V37.053h-3.2v6.407H53.465c.045-.53.082-1.061.082-1.6V33.849h4.806A1.6,1.6,0,0,1,59.954,35.451ZM10.3,43.461a1.6,1.6,0,0,1-1.6-1.6V35.451a1.6,1.6,0,0,1,1.6-1.6H15.1v8.009c0,.541.037,1.072.081,1.6ZM15.1,27.442v3.2H11.9V18.028a6.846,6.846,0,0,1,5.194-6.652l.431-.106,1.357-1.357A22.182,22.182,0,0,1,56.75,25.6v5.046h-3.2v-3.2h-1.6a21.458,21.458,0,0,1-15.274-6.325l-2.346-2.349-2.346,2.349A21.463,21.463,0,0,1,16.7,27.442Zm3.2,14.417V30.6a24.624,24.624,0,0,0,15.938-7.215l.081-.081.08.081A24.624,24.624,0,0,0,50.343,30.6V41.859A15.9,15.9,0,0,1,49,48.266H40.437a4.8,4.8,0,0,0-4.511-3.2h-3.2a4.806,4.806,0,0,0,0,9.611h3.2a4.8,4.8,0,0,0,4.511-3.2h6.672a16,16,0,0,1-28.8-9.611Zm19.222,8.009a1.6,1.6,0,0,1-1.6,1.6h-3.2a1.6,1.6,0,0,1,0-3.2h3.2A1.6,1.6,0,0,1,37.528,49.868ZM32.723,80.3H15.552l1.1-4.418-3.107-.775-1.3,5.193H4.575l3.708-10.2a8.029,8.029,0,0,1,6.21-5.165l11.85-1.975a8.01,8.01,0,0,0,6.379,7.563Zm-3.2-17.62V60.448a18.564,18.564,0,0,0,9.611,0v2.235a4.806,4.806,0,0,1-9.611,0ZM35.926,80.3V70.53A8.01,8.01,0,0,0,42.3,62.967L53.849,64.89c-.264.608-.513,1.224-.726,1.862l-4.382,1.086V79.954l1.408.349ZM96.8,77.449l-3.72.921-.258.888a19.1,19.1,0,0,1-1.607,3.9l-.445.809,1.973,3.274-5.024,5.025-3.274-1.973-.809.445a19.249,19.249,0,0,1-3.9,1.608l-.887.257-.921,3.718H70.817L69.9,92.6l-.887-.257a19.286,19.286,0,0,1-3.9-1.608l-.809-.445-3.274,1.973L56,87.24l1.973-3.274-.445-.809a19.063,19.063,0,0,1-1.607-3.9l-.258-.888-3.719-.919V70.343l3.719-.921.258-.887a19.082,19.082,0,0,1,1.607-3.9l.445-.81L56,60.549l5.024-5.025L64.3,57.5l.809-.445a19.252,19.252,0,0,1,3.9-1.609l.887-.256.921-3.718h7.106l.921,3.72.887.256a19.289,19.289,0,0,1,3.9,1.609l.809.445,3.274-1.973L92.74,60.55l-1.973,3.274.445.81a19.044,19.044,0,0,1,1.607,3.9l.258.887,3.72.92ZM74.371,57.877A16.018,16.018,0,1,0,90.389,73.9,16.037,16.037,0,0,0,74.371,57.877Zm0,28.833A12.815,12.815,0,1,1,87.185,73.9,12.829,12.829,0,0,1,74.371,86.71ZM83.982,73.9h-3.2A6.407,6.407,0,1,0,74.371,80.3v3.2A9.611,9.611,0,1,1,83.982,73.9ZM26.315,35.451a1.6,1.6,0,1,1-1.6-1.6A1.6,1.6,0,0,1,26.315,35.451Zm16.018,0a1.6,1.6,0,1,1,1.6,1.6A1.6,1.6,0,0,1,42.334,35.451Zm0,0" transform="translate(0 -0.211)"/>
</svg>
